# xmcd
#
# Track frame offsets:
#	150
#	17978
#	33198
#	49238
#	66220
#	87735
#	102806
#	117350
#	132614
#	146008
#	164173
#	183380
#	202251
#	221880
#
# Disc length: 3164
#
# Revision: 1
# Processed by: cddbd v1.5.1PL0 Copyright (c) Steve Scherf et al.
# Submitted via: CDex 1.50beta9
# Normalized: r0:TDELIM( - )
#
DISCID=e40c5a0e
DTITLE=Various Artist - HItz - Country - Vol 2
DYEAR=2002
DGENRE=Country
TTITLE0=Kenny Chesney - Young
TTITLE1=Toby Keith - My List
TTITLE2=Tommy Shane Steiner - What If She's An Angel
TTITLE3=Carolyn Dawn Johnson - I Don't Want You To Go
TTITLE4=Travis Tritt - Modern Day Bonnie and Clyde
TTITLE5=Steve Azar - I Don't Have To Be Me
TTITLE6=Chely Wright - Jezebel
TTITLE7=Trick Pony - Just What I Do
TTITLE8=Andy Griggs - Tonight I Wanna Be Your Man
TTITLE9=Kellie Coffey - When You Lie Next To Me
TTITLE10=Mark McGuinn - She Doesn't Dance
TTITLE11=Lonestar - Not A Day Goes By
TTITLE12=Gary Allan - The One
TTITLE13=Reba McEntire - Sweet Music Man
EXTD=YEAR: 2002
EXTT0=
EXTT1=
EXTT2=
EXTT3=
EXTT4=
EXTT5=
EXTT6=
EXTT7=
EXTT8=
EXTT9=
EXTT10=
EXTT11=
EXTT12=
EXTT13=
PLAYORDER=
